<svg width="35" height="34" viewBox="0 0 35 34" fill="none" xmlns="http://www.w3.org/2000/svg">
<path d="M0.00012207 17C0.00012207 7.61116 7.83514 0 17.5001 0C27.1651 0 35.0001 7.61116 35.0001 17C35.0001 26.3888 27.1651 34 17.5001 34C7.83514 34 0.00012207 26.3888 0.00012207 17Z" fill="url(#paint0_linear_2010_74)" fill-opacity="0.65"/>
<g clip-path="url(#clip0_2010_74)">
<path fill-rule="evenodd" clip-rule="evenodd" d="M18.0001 21.5C20.4854 21.5 22.5001 19.4853 22.5001 17C22.5001 14.5147 20.4854 12.5 18.0001 12.5C15.5148 12.5 13.5001 14.5147 13.5001 17C13.5001 19.4853 15.5148 21.5 18.0001 21.5ZM18.0001 20C19.6569 20 21.0001 18.6568 21.0001 17C21.0001 15.3431 19.6569 14 18.0001 14C16.3433 14 15.0001 15.3431 15.0001 17C15.0001 18.6568 16.3433 20 18.0001 20Z" fill="white"/>
<path d="M22.5001 11.75C22.0859 11.75 21.7501 12.0858 21.7501 12.5C21.7501 12.9142 22.0859 13.25 22.5001 13.25C22.9143 13.25 23.2501 12.9142 23.2501 12.5C23.2501 12.0858 22.9143 11.75 22.5001 11.75Z" fill="white"/>
<path fill-rule="evenodd" clip-rule="evenodd" d="M10.2406 11.207C9.75012 12.1696 9.75012 13.4298 9.75012 15.95V18.05C9.75012 20.5702 9.75012 21.8304 10.2406 22.7929C10.672 23.6397 11.3604 24.3281 12.2072 24.7595C13.1698 25.25 14.4299 25.25 16.9501 25.25H19.0501C21.5703 25.25 22.8305 25.25 23.793 24.7595C24.6398 24.3281 25.3282 23.6397 25.7596 22.7929C26.2501 21.8304 26.2501 20.5702 26.2501 18.05V15.95C26.2501 13.4298 26.2501 12.1696 25.7596 11.207C25.3282 10.3603 24.6398 9.6719 23.793 9.24047C22.8305 8.75 21.5703 8.75 19.0501 8.75H16.9501C14.4299 8.75 13.1698 8.75 12.2072 9.24047C11.3604 9.6719 10.672 10.3603 10.2406 11.207ZM19.0501 10.25H16.9501C15.6653 10.25 14.7918 10.2512 14.1167 10.3063C13.4591 10.3601 13.1228 10.4574 12.8882 10.577C12.3237 10.8646 11.8647 11.3235 11.5771 11.888C11.4576 12.1226 11.3602 12.4589 11.3064 13.1166C11.2513 13.7917 11.2501 14.6651 11.2501 15.95V18.05C11.2501 19.3349 11.2513 20.2083 11.3064 20.8834C11.3602 21.5411 11.4576 21.8774 11.5771 22.112C11.8647 22.6765 12.3237 23.1354 12.8882 23.423C13.1228 23.5426 13.4591 23.64 14.1167 23.6937C14.7918 23.7488 15.6653 23.75 16.9501 23.75H19.0501C20.335 23.75 21.2084 23.7488 21.8835 23.6937C22.5412 23.64 22.8775 23.5426 23.1121 23.423C23.6766 23.1354 24.1355 22.6765 24.4231 22.112C24.5427 21.8774 24.6401 21.5411 24.6938 20.8834C24.7489 20.2083 24.7501 19.3349 24.7501 18.05V15.95C24.7501 14.6651 24.7489 13.7917 24.6938 13.1166C24.6401 12.4589 24.5427 12.1226 24.4231 11.888C24.1355 11.3235 23.6766 10.8646 23.1121 10.577C22.8775 10.4574 22.5412 10.3601 21.8835 10.3063C21.2084 10.2512 20.335 10.25 19.0501 10.25Z" fill="white"/>
</g>
<defs>
<linearGradient id="paint0_linear_2010_74" x1="0.00012207" y1="17" x2="35.0001" y2="17" gradientUnits="userSpaceOnUse">
<stop stop-color="#F193C0"/>
<stop offset="0.518829" stop-color="#E6A7D0"/>
<stop offset="1" stop-color="#D5BCE4"/>
</linearGradient>
<clipPath id="clip0_2010_74">
<rect width="18" height="18" fill="white" transform="translate(9.00012 8)"/>
</clipPath>
</defs>
</svg>
