<svg width="35" height="34" viewBox="0 0 35 34" fill="none" xmlns="http://www.w3.org/2000/svg">
<path fill-rule="evenodd" clip-rule="evenodd" d="M0 17C0 26.3888 7.83502 34 17.5 34C27.165 34 35 26.3888 35 17C35 7.61116 27.165 0 17.5 0C7.83502 0 0 7.61116 0 17ZM14.2917 24.7917L14.5894 20.4583L14.5892 20.4581L22.704 13.3443C23.0601 13.0372 22.6262 12.8875 22.1535 13.166L12.1386 19.3037L7.81279 17.9921C6.87859 17.7143 6.87189 17.0907 8.02253 16.6423L24.8794 10.3281C25.6493 9.98856 26.3924 10.5077 26.0985 11.6524L23.2278 24.7939C23.0273 25.7277 22.4464 25.9511 21.6417 25.5197L17.2686 22.3812L15.1667 24.3667C15.16 24.3729 15.1534 24.3792 15.1469 24.3854C14.9118 24.6077 14.7173 24.7917 14.2917 24.7917Z" fill="black"/>
</svg>
