<svg width="35" height="34" viewBox="0 0 35 34" fill="none" xmlns="http://www.w3.org/2000/svg">
<path fill-rule="evenodd" clip-rule="evenodd" d="M0.000244141 17C0.000244141 26.3888 7.83526 34 17.5002 34C27.1652 34 35.0002 26.3888 35.0002 17C35.0002 7.61116 27.1652 0 17.5002 0C7.83526 0 0.000244141 7.61116 0.000244141 17ZM14.2919 24.7917L14.5897 20.4583L14.5894 20.4581L22.7042 13.3443C23.0604 13.0372 22.6265 12.8875 22.1537 13.166L12.1389 19.3037L7.81303 17.9921C6.87884 17.7143 6.87213 17.0907 8.02277 16.6423L24.8796 10.3281C25.6495 9.98856 26.3926 10.5077 26.0987 11.6524L23.228 24.7939C23.0275 25.7277 22.4467 25.9511 21.6419 25.5197L17.2689 22.3812L15.1669 24.3667C15.1603 24.3729 15.1537 24.3792 15.1471 24.3854C14.912 24.6077 14.7175 24.7917 14.2919 24.7917Z" fill="url(#paint0_linear_1_154)" fill-opacity="0.65"/>
<defs>
<linearGradient id="paint0_linear_1_154" x1="0.000244141" y1="17" x2="35.0002" y2="17" gradientUnits="userSpaceOnUse">
<stop stop-color="#F193C0"/>
<stop offset="0.518829" stop-color="#E6A7D0"/>
<stop offset="1" stop-color="#D5BCE4"/>
</linearGradient>
</defs>
</svg>
