<svg width="35" height="34" viewBox="0 0 35 34" fill="none" xmlns="http://www.w3.org/2000/svg">
<path fill-rule="evenodd" clip-rule="evenodd" d="M17.4999 0C7.83489 0 -0.00012207 7.61116 -0.00012207 17C-0.00012207 26.3888 7.83489 34 17.4999 34C27.1649 34 34.9999 26.3888 34.9999 17C34.9999 7.61116 27.1649 0 17.4999 0ZM18.9248 22.3665C18.7522 22.5432 18.4153 22.5789 18.4153 22.5789H17.2997C17.2997 22.5789 14.8382 22.7199 12.6699 20.5679C10.3053 18.2199 8.21725 13.5614 8.21725 13.5614C8.21725 13.5614 8.09674 13.2558 8.22729 13.1087C8.37428 12.9424 8.77509 12.932 8.77509 12.932L11.4419 12.9155C11.4419 12.9155 11.693 12.9546 11.8729 13.0809C12.0217 13.1853 12.1048 13.3795 12.1048 13.3795C12.1048 13.3795 12.5357 14.4189 13.1063 15.3592C14.2211 17.1952 14.7396 17.5966 15.1176 17.3998C15.6691 17.1134 15.5038 14.8046 15.5038 14.8046C15.5038 14.8046 15.5138 13.9671 15.2263 13.5936C15.0035 13.3046 14.5835 13.2202 14.3982 13.1967C14.2475 13.1775 14.494 12.8449 14.8136 12.6961C15.2938 12.4723 16.1411 12.4593 17.1426 12.4688C17.9232 12.4767 18.1478 12.5228 18.4528 12.5933C19.1605 12.7562 19.1384 13.2781 19.0907 14.4044C19.0764 14.7413 19.0599 15.1322 19.0599 15.5838C19.0599 15.6853 19.0568 15.7934 19.0536 15.9047C19.037 16.4817 19.0181 17.1425 19.4169 17.3885C19.6214 17.5139 20.1208 17.4068 21.3707 15.3835C21.9632 14.4242 22.4069 13.2968 22.4069 13.2968C22.4069 13.2968 22.5046 13.0957 22.6552 13.0095C22.8095 12.9215 23.0177 12.9485 23.0177 12.9485L25.8242 12.932C25.8242 12.932 26.6678 12.8354 26.8038 13.1993C26.9472 13.5797 26.4889 14.4694 25.3422 15.9268C24.2561 17.3075 23.7267 17.8172 23.7734 18.2669C23.8077 18.5968 24.1519 18.8944 24.8135 19.4796C26.192 20.7 26.5614 21.342 26.6502 21.4963C26.6576 21.509 26.663 21.5185 26.6669 21.5246C27.285 22.5023 25.9812 22.5789 25.9812 22.5789L23.4879 22.612C23.4879 22.612 22.9529 22.713 22.248 22.2516C21.8788 22.0101 21.518 21.6156 21.1744 21.24C20.6496 20.6662 20.1648 20.1362 19.751 20.2614C19.0562 20.4721 19.0772 21.899 19.0772 21.899C19.0772 21.899 19.0827 22.2045 18.9248 22.3665Z" fill="black"/>
</svg>
