<svg width="35" height="34" viewBox="0 0 35 34" fill="none" xmlns="http://www.w3.org/2000/svg">
<path fill-rule="evenodd" clip-rule="evenodd" d="M17.5001 0C7.83514 0 0.00012207 7.61116 0.00012207 17C0.00012207 26.3888 7.83514 34 17.5001 34C27.1651 34 35.0001 26.3888 35.0001 17C35.0001 7.61116 27.1651 0 17.5001 0ZM18.925 22.3665C18.7525 22.5432 18.4156 22.5789 18.4156 22.5789H17.2999C17.2999 22.5789 14.8385 22.7199 12.6701 20.5679C10.3055 18.2199 8.21749 13.5614 8.21749 13.5614C8.21749 13.5614 8.09698 13.2558 8.22754 13.1087C8.37453 12.9424 8.77533 12.932 8.77533 12.932L11.4422 12.9155C11.4422 12.9155 11.6932 12.9546 11.8731 13.0809C12.0219 13.1853 12.105 13.3795 12.105 13.3795C12.105 13.3795 12.5359 14.4189 13.1065 15.3592C14.2213 17.1952 14.7399 17.5966 15.1179 17.3998C15.6693 17.1134 15.504 14.8046 15.504 14.8046C15.504 14.8046 15.5141 13.9671 15.2265 13.5936C15.0037 13.3046 14.5838 13.2202 14.3984 13.1967C14.2478 13.1775 14.4943 12.8449 14.8138 12.6961C15.2941 12.4723 16.1413 12.4593 17.1429 12.4688C17.9235 12.4767 18.1481 12.5228 18.453 12.5933C19.1607 12.7562 19.1386 13.2781 19.0909 14.4044C19.0767 14.7413 19.0601 15.1322 19.0601 15.5838C19.0601 15.6853 19.057 15.7934 19.0538 15.9047C19.0373 16.4817 19.0183 17.1425 19.4171 17.3885C19.6216 17.5139 20.121 17.4068 21.3709 15.3835C21.9634 14.4242 22.4071 13.2968 22.4071 13.2968C22.4071 13.2968 22.5048 13.0957 22.6555 13.0095C22.8098 12.9215 23.0179 12.9485 23.0179 12.9485L25.8245 12.932C25.8245 12.932 26.6681 12.8354 26.8041 13.1993C26.9474 13.5797 26.4891 14.4694 25.3424 15.9268C24.2563 17.3075 23.7269 17.8172 23.7737 18.2669C23.808 18.5968 24.1521 18.8944 24.8138 19.4796C26.1922 20.7 26.5617 21.342 26.6504 21.4963C26.6578 21.509 26.6632 21.5185 26.6671 21.5246C27.2852 22.5023 25.9815 22.5789 25.9815 22.5789L23.4881 22.612C23.4881 22.612 22.9531 22.713 22.2483 22.2516C21.8791 22.0101 21.5183 21.6156 21.1747 21.24C20.6499 20.6662 20.1651 20.1362 19.7513 20.2614C19.0565 20.4721 19.0775 21.899 19.0775 21.899C19.0775 21.899 19.083 22.2045 18.925 22.3665Z" fill="url(#paint0_linear_1_156)" fill-opacity="0.65"/>
<defs>
<linearGradient id="paint0_linear_1_156" x1="0.00012207" y1="17" x2="35.0001" y2="17" gradientUnits="userSpaceOnUse">
<stop stop-color="#F193C0"/>
<stop offset="0.518829" stop-color="#E6A7D0"/>
<stop offset="1" stop-color="#D5BCE4"/>
</linearGradient>
</defs>
</svg>
