<svg width="35" height="34" viewBox="0 0 35 34" fill="none" xmlns="http://www.w3.org/2000/svg">
<path fill-rule="evenodd" clip-rule="evenodd" d="M17.5 0C7.83502 0 0 7.61116 0 17C0 26.3888 7.83502 34 17.5 34C27.165 34 35 26.3888 35 17C35 7.61116 27.165 0 17.5 0ZM24.7928 11.1558C25.596 11.3699 26.2286 12.0007 26.4432 12.8019C26.8333 14.2538 26.8333 17.2833 26.8333 17.2833C26.8333 17.2833 26.8333 20.3127 26.4432 21.7648C26.2286 22.5659 25.596 23.1968 24.7928 23.411C23.3373 23.8 17.5 23.8 17.5 23.8C17.5 23.8 11.6627 23.8 10.2071 23.411C9.40386 23.1968 8.77132 22.5659 8.55665 21.7648C8.16667 20.3127 8.16667 17.2833 8.16667 17.2833C8.16667 17.2833 8.16667 14.2538 8.55665 12.8019C8.77132 12.0007 9.40386 11.3699 10.2071 11.1558C11.6627 10.7667 17.5 10.7667 17.5 10.7667C17.5 10.7667 23.3373 10.7667 24.7928 11.1558Z" fill="black"/>
<path d="M15.75 20.4001V14.7334L20.4167 17.5668L15.75 20.4001Z" fill="black"/>
</svg>
