<svg width="35" height="34" viewBox="0 0 35 34" fill="none" xmlns="http://www.w3.org/2000/svg">
<path fill-rule="evenodd" clip-rule="evenodd" d="M17.5002 0C7.83526 0 0.000244141 7.61116 0.000244141 17C0.000244141 26.3888 7.83526 34 17.5002 34C27.1652 34 35.0002 26.3888 35.0002 17C35.0002 7.61116 27.1652 0 17.5002 0ZM24.7931 11.1558C25.5963 11.3699 26.2288 12.0007 26.4435 12.8019C26.8336 14.2538 26.8336 17.2833 26.8336 17.2833C26.8336 17.2833 26.8336 20.3127 26.4435 21.7648C26.2288 22.5659 25.5963 23.1968 24.7931 23.411C23.3375 23.8 17.5002 23.8 17.5002 23.8C17.5002 23.8 11.663 23.8 10.2073 23.411C9.40411 23.1968 8.77156 22.5659 8.5569 21.7648C8.16691 20.3127 8.16691 17.2833 8.16691 17.2833C8.16691 17.2833 8.16691 14.2538 8.5569 12.8019C8.77156 12.0007 9.40411 11.3699 10.2073 11.1558C11.663 10.7667 17.5002 10.7667 17.5002 10.7667C17.5002 10.7667 23.3375 10.7667 24.7931 11.1558Z" fill="url(#paint0_linear_1_155)" fill-opacity="0.65"/>
<path d="M15.7502 20.4001V14.7334L20.4169 17.5668L15.7502 20.4001Z" fill="url(#paint1_linear_1_155)" fill-opacity="0.65"/>
<defs>
<linearGradient id="paint0_linear_1_155" x1="0.000244141" y1="17" x2="35.0002" y2="17" gradientUnits="userSpaceOnUse">
<stop stop-color="#F193C0"/>
<stop offset="0.518829" stop-color="#E6A7D0"/>
<stop offset="1" stop-color="#D5BCE4"/>
</linearGradient>
<linearGradient id="paint1_linear_1_155" x1="15.7502" y1="17.5667" x2="20.4169" y2="17.5667" gradientUnits="userSpaceOnUse">
<stop stop-color="#F193C0"/>
<stop offset="0.518829" stop-color="#E6A7D0"/>
<stop offset="1" stop-color="#D5BCE4"/>
</linearGradient>
</defs>
</svg>
